<?xml version="1.0" encoding="UTF-8"?>
<svg version="1.1" xmlns="http://www.w3.org/2000/svg" width="500" height="500">
<path d="M0 0 C165 0 330 0 500 0 C500 165 500 330 500 500 C335 500 170 500 0 500 C0 335 0 170 0 0 Z " fill="#F7F6F1" transform="translate(0,0)"/>
<path d="M0 0 C6.31760765 3.48059465 10.65733989 8.10909643 12.87890625 15.03515625 C13.83847569 19.68816279 13.17592007 23.05053947 10.81640625 27.16015625 C6.57490859 33.23645908 1.47662011 37.12411643 -5.32421875 39.98046875 C-7.67163538 41.35830025 -8.68463197 42.71877801 -10.12109375 45.03515625 C-10.58964462 47.70327457 -10.58964462 47.70327457 -10.5625 50.60546875 C-10.58892578 51.66636719 -10.61535156 52.72726563 -10.64257812 53.8203125 C-10.66288086 55.47353516 -10.66288086 55.47353516 -10.68359375 57.16015625 C-10.71793575 59.35041267 -10.76048635 61.54056073 -10.8125 63.73046875 C-10.82482666 64.70000488 -10.83715332 65.66954102 -10.84985352 66.66845703 C-11.12109375 69.03515625 -11.12109375 69.03515625 -13.12109375 71.03515625 C-16.48300632 71.09980841 -18.96974381 70.84984521 -21.7734375 68.8659668 C-27.3106023 63.20639965 -26.94571444 57.37159345 -26.87109375 49.78515625 C-26.89655648 42.12087363 -27.12204343 34.90456642 -28.65380859 27.38037109 C-30.28168947 19.21034824 -29.6768378 12.37663229 -25.5546875 5.1015625 C-19.6042552 -3.47549114 -9.02572283 -3.92026345 0 0 Z " fill="#030303" transform="translate(89.12109375,202.96484375)"/>
<path d="M0 0 C3.17073491 2.44799387 5.00937416 5.18640264 5.90625 9.04296875 C6.48847513 14.24065123 6.20443821 17.76753959 2.90625 22.04296875 C2.04 22.81640625 2.04 22.81640625 1.15625 23.60546875 C0.74375 24.07984375 0.33125 24.55421875 -0.09375 25.04296875 C0.13382731 27.20596086 0.13382731 27.20596086 0.90625 29.04296875 C2.164375 29.14609375 3.4225 29.24921875 4.71875 29.35546875 C7.18948398 29.6840238 8.76619407 29.9665746 10.96875 31.16796875 C12.57697781 34.38442436 11.85249556 36.67196894 10.90625 40.04296875 C6.1371817 45.08455523 0.80965499 46.16512803 -5.90625 46.48046875 C-14.35157754 46.34425379 -19.81778486 42.36803008 -26.09375 37.04296875 C-29.83474454 35.17247148 -34.50877116 36.21245864 -38.61328125 36.3984375 C-42.7060164 35.98043649 -44.20051493 34.88860032 -47.09375 32.04296875 C-49.14705146 29.33634409 -49.09319435 28.01185241 -49.03125 24.54296875 C-48.09375 21.04296875 -48.09375 21.04296875 -46.09375 18.66796875 C-43.10093362 17.04685988 -41.92266461 16.86817594 -38.65625 16.73046875 C-35.87539416 16.54107491 -34.50694788 16.37698554 -32.3203125 14.609375 C-30.79782876 12.81253505 -29.4189462 10.98935067 -28.09375 9.04296875 C-21.93726431 0.12667912 -10.48336018 -4.79183441 0 0 Z " fill="#040404" transform="translate(374.09375,229.95703125)"/>
<path d="M0 0 C4.43720786 4.70612955 4.53747936 8.98169642 4.4609375 15.2734375 C3.86542801 19.62883041 2.16024218 21.1653125 -0.9375 24.1875 C-1.62100218 26.27291467 -1.62100218 26.27291467 -1.9375 28.1875 C-1.23882812 28.23648437 -0.54015625 28.28546875 0.1796875 28.3359375 C1.08976562 28.41070312 1.99984375 28.48546875 2.9375 28.5625 C3.84242188 28.63210938 4.74734375 28.70171875 5.6796875 28.7734375 C8.0625 29.1875 8.0625 29.1875 10.0625 31.1875 C10.63014144 35.48535664 10.59580541 37.46026535 8 41 C1.79078829 45.62388106 -5.42574959 46.06423168 -12.9375 45.1875 C-18.49411336 43.42122256 -22.62143679 39.98974616 -26.9375 36.1875 C-29.87027244 34.72111378 -32.43006133 35.28631086 -35.6875 35.4375 C-43.53036857 35.51793968 -43.53036857 35.51793968 -46.75 32.8125 C-49.28889197 29.76582963 -49.85591719 28.80519842 -50.375 24.875 C-49.9375 21.1875 -49.9375 21.1875 -47.5625 18.375 C-44.76723095 16.30321235 -42.54714572 15.92019698 -39.125 15.5625 C-32.90925795 14.62269469 -30.74315 10.72588377 -27.171875 5.89453125 C-20.5859921 -2.08451918 -9.17188174 -5.65924618 0 0 Z " fill="#030303" transform="translate(310.9375,230.8125)"/>
<path d="M0 0 C3.03360889 0.77784843 4.44273818 2.25026557 6.3203125 4.7109375 C7.94852551 7.50053321 8.72060868 10.43342436 9.609375 13.5234375 C10.4031994 15.95810705 10.4031994 15.95810705 13.1875 18.3125 C15.4375 20.625 15.4375 20.625 15.5 23.8125 C14.4375 26.625 14.4375 26.625 12.71875 27.78515625 C9.98483917 28.7916474 7.78446061 28.8908338 4.875 28.875 C3.44994141 28.88273437 3.44994141 28.88273437 1.99609375 28.890625 C-0.5625 28.625 -0.5625 28.625 -3.5625 26.625 C-6.01965742 26.05712403 -6.01965742 26.05712403 -8.5625 26.625 C-10.73504587 28.70511026 -10.73504587 28.70511026 -12.5625 31.4375 C-15.23714777 35.17445747 -17.38967566 37.60715536 -21.5625 39.625 C-26.13980035 40.20624449 -29.19410005 40.33044937 -33.0625 37.6875 C-35.9366624 34.16665106 -36.46221331 32.52652293 -36.14453125 28.09375 C-34.56275448 21.38446867 -30.19184506 15.19486577 -24.81640625 10.92578125 C-20.78553382 8.59947186 -16.39260565 7.27813789 -11.96484375 5.8984375 C-7.67900982 4.29432514 -4.38799796 1.0702434 0 0 Z " fill="#040404" transform="translate(193.5625,238.375)"/>
<path d="M0 0 C4.47694952 2.32456994 6.73219686 4.54720675 9 9 C9.64170468 12.01601201 10.00038984 15.00318369 10.375 18.0625 C11.21911631 22.02984665 12.53067426 24.90193858 15.82421875 27.36328125 C16.43910156 27.67652344 17.05398438 27.98976563 17.6875 28.3125 C18.780625 28.869375 19.87375 29.42625 21 30 C21.36647009 34.51979781 21.36647009 34.51979781 19.75390625 36.6328125 C17.0114166 38.77061067 14.7293716 38.59912691 11.34765625 38.47265625 C6.44925397 37.48645546 3.50834863 34.22614797 0.78515625 30.20703125 C-2.15341083 24.82889904 -3.5631091 18.92173218 -5 13 C-9.15125743 15.09988481 -10.79216242 16.77544559 -12.5625 21.0625 C-12.975 22.03445313 -13.3875 23.00640625 -13.8125 24.0078125 C-14.57708984 25.9343777 -15.32820786 27.86637222 -16.0625 29.8046875 C-19.43972749 38.69629426 -19.43972749 38.69629426 -23 41 C-26.85742989 41.73865679 -28.4870767 41.30106368 -31.875 39.3125 C-35.20613609 34.11984668 -34.81556891 28.99594177 -34 23 C-31.22807263 17.14815333 -26.99557524 13.86420216 -21.1875 11.25 C-16.83332124 9.1927125 -13.91997121 6.2029173 -10.6640625 2.70703125 C-7.40564044 -0.63552847 -4.53200124 -0.37766677 0 0 Z " fill="#030303" transform="translate(427,239)"/>
<path d="M0 0 C3.69670423 0.0900537 5.36641281 0.73879217 8.20703125 3.078125 C8.83984375 5.1875 8.83984375 5.1875 9.20703125 7.078125 C4.73624523 11.02905218 1.60062234 12.3978173 -4.35546875 13.140625 C-11.2656362 14.01885088 -11.2656362 14.01885088 -16.79296875 18.078125 C-19.38485023 23.02626238 -19.98003815 28.28719588 -20.66796875 33.765625 C-21.47641302 39.42473487 -22.26888024 42.47941823 -26.79296875 46.078125 C-29.73046875 46.765625 -29.73046875 46.765625 -32.79296875 46.078125 C-35.70837074 44.22718374 -38.22247919 42.21910412 -39.79296875 39.078125 C-40.32164583 35.17668398 -40.54002499 31.25565169 -40.79296875 27.328125 C-40.89480469 26.24273437 -40.99664062 25.15734375 -41.1015625 24.0390625 C-41.57031981 16.21368534 -41.57031981 16.21368534 -39.45678711 13.1262207 C-37.65550943 11.54713805 -35.84372047 10.31205622 -33.79296875 9.078125 C-32.74238281 8.31886719 -31.69179687 7.55960938 -30.609375 6.77734375 C-20.11948188 0.29199566 -12.19732091 0.25123215 0 0 Z " fill="#030303" transform="translate(150.79296875,223.921875)"/>
<path d="M0 0 C5.60874467 0.91946634 7.53226986 4.23241459 10.8125 8.625 C11.616875 9.615 12.42125 10.605 13.25 11.625 C14.0234375 12.615 14.0234375 12.615 14.8125 13.625 C19.06461501 12.2833844 20.95962565 10.65009009 23.5625 7.0625 C24.45195312 5.85400391 24.45195312 5.85400391 25.359375 4.62109375 C26.07867187 3.63302734 26.07867187 3.63302734 26.8125 2.625 C27.8125 1.625 27.8125 1.625 30.1875 1.25 C32.8125 1.625 32.8125 1.625 34.4453125 3.68359375 C37.06896536 9.32819547 36.50153698 15.56415046 35.8125 21.625 C33.66829509 27.19786108 26.92879019 30.94373562 21.8125 33.625 C18.38971005 34.48069749 16.81991021 34.1203564 13.69140625 32.58203125 C4.6251109 27.1239074 -1.45451175 18.44075927 -5.1875 8.625 C-5.625 5.125 -5.625 5.125 -5.1875 2.625 C-3.1875 0.625 -3.1875 0.625 0 0 Z " fill="#040404" transform="translate(220.1875,241.375)"/>
</svg>
